PathFileType	4	(X/Y/Z)	Patient4_TMGait_0pt6_01_right_37.trc.trc
DataRate	CameraRate	NumFrames	NumMarkers	Units	OrigDataRate	OrigDataStartFrame	OrigNumFrames
80.000000000000	80.000000000000	4	33	mm	80.000000000000	1	       141
Frame#	Time	Sacral			L.Shoulder			Chest			R.Shoulder			Neck			R.ASIS			L.ASIS			R.Thigh.Superior			R.Thigh.Lateral			R.Thigh.Inferior			R.Patella			L.Thigh.Superior			L.Thigh.Lateral			L.Thigh.Inferior			L.Patella			L.Shank.Superior			L.Shank.Lateral			L.Shank.Inferior			R.Shank.Superior			R.Shank.Lateral			R.Shank.Inferior			R.Heel			R.Midfoot.Superior			R.Midfoot.Lateral			R.Toe			L.Heel			L.Midfoot.Lateral			L.Midfoot.Superior			L.Toe			L.Elbow			L.Wrist			R.Elbow			R.Wrist			
		X1	Y1	Z1	X2	Y2	Z2	X3	Y3	Z3	X4	Y4	Z4	X5	Y5	Z5	X6	Y6	Z6	X7	Y7	Z7	X8	Y8	Z8	X9	Y9	Z9	X10	Y10	Z10	X11	Y11	Z11	X12	Y12	Z12	X13	Y13	Z13	X14	Y14	Z14	X15	Y15	Z15	X16	Y16	Z16	X17	Y17	Z17	X18	Y18	Z18	X19	Y19	Z19	X20	Y20	Z20	X21	Y21	Z21	X22	Y22	Z22	X23	Y23	Z23	X24	Y24	Z24	X25	Y25	Z25	X26	Y26	Z26	X27	Y27	Z27	X28	Y28	Z28	X29	Y29	Z29	X30	Y30	Z30	X31	Y31	Z31	X32	Y32	Z32	X33	Y33	Z33	

1	44.450000000000	743.306438966765	1010.622362193727	424.262986434053	901.168532310903	1438.880265724828	233.898845806081	1007.482688727050	1378.225629257108	395.386981012949	921.516052780033	1449.420198412213	568.331865918929	881.550064895033	1502.158079734882	385.361472528166	970.587273107321	951.346596378589	539.650691407887	955.751455093833	969.142772244072	266.068759242850	1054.499206980854	780.994346893050	513.188120410031	1014.497468776911	658.927539796699	586.607034488793	1107.432772904034	621.074774641316	510.416001925386	1126.586131276034	506.916787836567	532.465525455636	996.808281403140	751.593030281510	293.864325036277	899.844906285528	639.352455188742	242.446993113317	982.174653040632	558.721241125229	303.871572490415	979.232717431495	490.547807159965	316.137918988467	953.408405538822	419.608010450620	310.668259857982	862.343861060803	303.345607203521	265.271449278233	916.945820087181	195.520874955100	340.467595055305	1050.705529279441	431.571450289636	535.731890550694	927.821598594795	390.257793459780	591.520841390086	915.330493991900	282.207447563380	540.649207099393	714.364178323891	215.144294724271	505.312364290573	884.322608095630	164.418909223684	551.500753107461	773.987604721532	160.109389057288	581.395271915922	953.273354026556	56.708312807216	583.190519327124	790.077703394596	38.538025275564	388.767685552520	865.479235257974	34.701533495628	308.950410151475	947.598428070456	96.874519271124	334.831374444780	1076.875923086084	45.983102217599	311.066413740690	933.292296505578	1088.634587296196	102.386516770444	1097.109599417567	884.374965488709	101.706124923660	906.005078389369	1099.432141808575	687.488781080318	1043.795732678210	878.233600468486	655.167498972867	
2	44.462500000000	741.239566817164	1010.572644545303	423.034484058395	901.811272792262	1438.787835407166	233.404719344455	1006.591369708114	1377.795864202249	395.730138395179	919.352497757021	1448.979805466729	568.008435387867	881.027240054828	1502.038777816594	384.815763978082	968.328437135916	951.697831881910	539.566571849764	956.044106573130	969.496907114825	265.536295083127	1054.134127684114	783.563778957682	512.518710121351	1016.687840428582	661.147066902195	586.392910472418	1109.270112832060	624.469824387551	509.302603793924	1131.085964764399	511.652434673026	531.583829470361	993.431349952587	750.611609042573	295.265426895640	895.769858053070	639.241711693108	242.242942576526	976.148055036993	557.847033046247	304.583662778917	972.126584724783	489.849761463355	316.927761216337	946.516253593974	419.195834792310	311.166193868082	855.642996368236	303.122756617467	265.196037418036	909.455617831357	195.283887193090	340.821853227134	1058.227489092767	434.214747135701	535.501237981672	938.125624286273	387.524305226640	592.060225441703	930.443878423176	279.133824551391	541.403971125268	733.271206032268	203.023899457883	507.285368769103	905.058813796993	160.170844761057	552.589134669873	795.507594846112	151.051861253173	583.254647249760	978.720238569703	55.937236766789	584.195580181888	782.109584418394	38.472390201509	388.862120087579	857.510316104003	34.725249630198	308.984540962204	939.638373736207	96.791695245894	335.024549978339	1068.917586046064	45.895412885772	311.101600025232	937.864183264647	1089.524487094323	101.125811418478	1109.806499817977	892.885286431693	100.558649274754	894.316883702398	1100.241928456281	687.283822446241	1015.514217730618	870.953551500483	661.929516252401	
3	44.475000000000	739.206078509016	1010.489229109647	421.832009692819	902.441002330776	1438.662101502237	232.948769096103	1005.717586610100	1377.339835325838	396.093504943489	917.233884980448	1448.513247296645	567.717738747898	880.528920164567	1501.890973014294	384.312310765989	966.090115376462	952.002096372002	539.499279103724	956.268516151883	969.778611594068	265.052971316546	1053.696809736472	786.007966120612	511.859358577633	1018.735246261055	663.269137386706	586.173537708440	1110.926025863018	627.712827568677	508.174848039349	1135.361999049655	516.271096631998	530.704419256863	990.172330934366	749.620414791735	296.615102376616	891.762817879238	639.118276698971	242.041904319158	970.203536698541	556.970885606235	305.291833231006	965.131867532743	489.158352648314	317.708436702846	939.719920757484	418.781546417775	311.661843752212	849.035129463378	302.894516397118	265.115512240130	902.039425715418	195.041287176573	341.183586031557	1065.577076510822	436.781526397447	535.288530816819	948.331064699784	384.715476325921	592.616934708274	945.515291994160	276.032558907368	542.176707378415	752.285168423848	190.858098240487	509.233130310416	925.810275551356	155.947350433329	553.709052017871	817.091068379825	142.004705806044	585.120523937796	1004.162996093065	55.265615633140	585.260895166244	774.217385335858	38.407709766388	388.947472045581	849.613674113754	34.744723215128	309.020677989868	931.752069838965	96.707283347434	335.217539462218	1061.034060450314	45.803592642874	311.137362304163	942.317505136644	1090.361090802357	99.932899071767	1122.298731904039	901.394924618381	99.475483570258	882.716192634631	1101.060359887925	687.050262220838	987.543514150915	864.092231837156	668.583831640496	
4	44.487500000000	737.245230437616	1010.340858808622	420.674526616349	903.057599595645	1438.475413056166	232.577239664015	1004.880911885591	1376.831963466308	396.509170539376	915.199086973437	1447.997639438800	567.498971743219	880.077947093988	1501.686404307814	383.904864616539	963.890956062755	952.213936530949	539.472963670390	956.371747963256	969.923563752639	264.670620596062	1053.102788678570	788.187809759543	511.241976536547	1020.464989751136	665.176713983236	585.963575209979	1112.212472310627	630.638289962563	507.059320818715	1139.173687162034	520.646732105991	529.854354629512	987.113089032818	748.606733500735	297.871008625714	887.870713892001	638.970200583561	241.846868784130	964.399082883743	556.089583566703	305.990237091442	958.329375015216	488.476298938286	318.466634744923	933.083168556983	418.362874474482	312.148562827574	842.573184082379	302.659683858407	265.025489925238	894.733972392231	194.788355213313	341.555490064141	1072.571654379377	439.196168737075	535.116531377166	958.353165686024	381.759803644014	593.205415774086	960.514003552138	272.907393503040	542.972118727183	771.559030138846	178.645333423089	511.116128376100	946.613168263699	151.822270931566	554.861456450112	838.848289332400	133.015510764941	586.964322860263	1029.614453606644	54.859483793805	586.387452664917	766.437109341776	38.345001537587	389.016766940306	841.821001551506	34.757380197567	309.060159769054	923.972664535356	96.619892909632	335.409348015409	1053.258897005377	45.704188571986	311.174306211270	946.542990517383	1091.096852728492	98.882701800062	1134.381068506734	909.941963276500	98.539205894682	871.277840145901	1101.921444548704	686.781579246281	960.183447448537	858.059503993614	675.023975065928	
